HIERARCHY
ROOT Hips
{
  OFFSET 0.000000 0.000000 0.000000
  CHANNELS 6 Xposition Yposition Zposition Xrotation Yrotation Zrotation
  JOINT Spine
  {
    OFFSET -0.205965 -24.117554 -2.855246
    CHANNELS 3 Xrotation Yrotation Zrotation
    JOINT Chest
    {
      OFFSET -0.205965 -24.117554 -2.855246
      CHANNELS 3 Xrotation Yrotation Zrotation
      JOINT Neck
      {
        OFFSET 1.732829 -16.074595 -7.583521
        CHANNELS 3 Xrotation Yrotation Zrotation
        JOINT Head
        {
          OFFSET 6.789161 6.150123 -9.544352
          CHANNELS 3 Xrotation Yrotation Zrotation
          End Site
          {
            OFFSET 0.0 0.0 5.0
          }
        }
      }
      JOINT LeftShoulder
      {
        OFFSET 15.604512 -0.032207 6.266379
        CHANNELS 3 Xrotation Yrotation Zrotation
        JOINT LeftArm
        {
          OFFSET 2.117507 21.582690 -7.440646
          CHANNELS 3 Xrotation Yrotation Zrotation
          JOINT LeftForeArm
          {
            OFFSET 5.693942 -7.733226 -20.629920
            CHANNELS 3 Xrotation Yrotation Zrotation
            JOINT LeftHand
            {
              OFFSET -5.000000 0.000000 0.000000
              CHANNELS 3 Xrotation Yrotation Zrotation
              End Site
              {
                OFFSET 0.0 0.0 5.0
              }
            }
          }
        }
      }
      JOINT RightShoulder
      {
        OFFSET -15.604512 0.032207 -6.266379
        CHANNELS 3 Xrotation Yrotation Zrotation
        JOINT RightArm
        {
          OFFSET 6.056690 21.053639 -10.595787
          CHANNELS 3 Xrotation Yrotation Zrotation
          JOINT RightForeArm
          {
            OFFSET 15.767041 -11.724293 -14.774765
            CHANNELS 3 Xrotation Yrotation Zrotation
            JOINT RightHand
            {
              OFFSET 3.626143 -3.008373 -1.899500
              CHANNELS 3 Xrotation Yrotation Zrotation
              End Site
              {
                OFFSET 0.0 0.0 5.0
              }
            }
          }
        }
      }
    }
  }
  JOINT LeftUpLeg
  {
    OFFSET 11.724548 -0.681192 2.472502
    CHANNELS 3 Xrotation Yrotation Zrotation
    JOINT LeftLeg
    {
      OFFSET 4.915397 39.653457 -7.804750
      CHANNELS 3 Xrotation Yrotation Zrotation
      JOINT LeftFoot
      {
        OFFSET 0.919454 32.950714 11.764636
        CHANNELS 3 Xrotation Yrotation Zrotation
        JOINT LeftToeBase
        {
          OFFSET 5.590172 13.539839 -10.805349
          CHANNELS 3 Xrotation Yrotation Zrotation
          End Site
          {
            OFFSET 0.0 0.0 5.0
          }
        }
      }
    }
  }
  JOINT RightUpLeg
  {
    OFFSET -11.724548 0.681192 -2.472502
    CHANNELS 3 Xrotation Yrotation Zrotation
    JOINT RightLeg
    {
      OFFSET 3.727733 39.810915 4.032837
      CHANNELS 3 Xrotation Yrotation Zrotation
      JOINT RightFoot
      {
        OFFSET 4.493247 31.053177 19.561110
        CHANNELS 3 Xrotation Yrotation Zrotation
        JOINT RightToeBase
        {
          OFFSET -3.350082 12.091959 -9.669672
          CHANNELS 3 Xrotation Yrotation Zrotation
          End Site
          {
            OFFSET 0.0 0.0 5.0
          }
        }
      }
    }
  }
}
MOTION
Frames: 8
Frame Time: 0.066667
0.000000 0.000000 0.000000 0.000000 0.000000 0.000000 0.000000 0.000000 0.000000 0.000000 0.000000 0.000000 0.000000 0.000000 0.000000 0.000000 0.000000 0.000000 0.000000 0.000000 0.000000 0.000000 0.000000 0.000000 -70.481937 -47.899631 115.684043 0.000000 0.000000 0.000000 0.000000 0.000000 0.000000 0.000000 0.000000 0.000000 0.000000 0.000000 0.000000 0.000000 0.000000 0.000000 0.000000 0.000000 0.000000 0.000000 0.000000 0.000000 0.000000 0.000000 0.000000 0.000000 0.000000 0.000000 0.000000 0.000000 0.000000 0.000000 0.000000 0.000000 0.000000 0.000000 0.000000 0.000000 0.000000 0.000000
0.000000 0.000000 0.000000 0.045437 0.010291 -0.212737 0.335527 0.279709 -2.328514 0.097503 0.261831 -0.242614 -0.010402 1.231409 0.779986 0.000000 0.000000 0.000000 0.141331 -1.780676 -5.165356 2.594456 0.375690 0.578442 -65.263679 -49.022222 109.091167 0.000000 0.000000 0.000000 -1.755928 1.483737 1.851544 0.980525 0.148159 0.922544 0.469372 0.291183 0.431169 0.000000 0.000000 0.000000 0.035082 -0.416490 -2.101944 7.184862 -0.866254 1.538138 8.027453 -2.535169 0.893420 0.000000 0.000000 0.000000 0.086650 -0.107639 0.974262 1.983869 -0.564556 0.418730 5.727771 2.804822 1.789410 0.000000 0.000000 0.000000
0.000000 0.000000 0.000000 0.061182 -0.019193 -0.295231 1.385330 0.512681 -4.013847 -0.032507 0.650209 0.085312 -0.276332 1.724753 0.899696 0.000000 0.000000 0.000000 1.886044 -1.351366 -3.587696 2.202270 -1.327082 1.075544 -71.500493 -47.240511 117.446251 0.000000 0.000000 0.000000 -0.222857 3.016860 5.748906 1.057041 -0.872549 1.813737 -0.582405 -1.176031 0.778288 0.000000 0.000000 0.000000 0.492906 -0.613500 -2.881329 5.534092 0.149070 -0.742690 5.578106 -3.900451 -2.378136 0.000000 0.000000 0.000000 4.173957 -0.709755 2.285249 1.781386 -1.544581 1.964170 4.562330 3.933569 3.724792 0.000000 0.000000 0.000000
0.000000 0.000000 0.000000 0.102269 0.756628 -0.284808 3.934942 0.568883 -3.929024 -0.033685 8.067771 0.149251 -4.091152 9.099629 2.443847 0.000000 0.000000 0.000000 2.572943 -1.306108 -3.311285 24.849351 -0.532745 6.513276 127.785611 -66.794992 -144.188903 0.000000 0.000000 0.000000 0.703623 6.615617 13.265391 11.829765 5.503114 7.812829 6.996241 -0.384698 12.748056 0.000000 0.000000 0.000000 0.749518 -1.063269 -5.134522 3.075057 2.183519 -5.860802 3.461160 -8.350518 -9.652734 0.000000 0.000000 0.000000 4.867625 -1.226122 5.278047 0.449839 -1.455533 2.181506 3.644838 6.164945 7.053745 0.000000 0.000000 0.000000
0.000000 0.000000 0.000000 0.199910 1.666530 -0.522149 5.915135 0.644756 -4.065094 0.472686 8.230514 -1.340930 -2.908323 7.106178 2.201533 0.000000 0.000000 0.000000 -3.164055 -3.494845 -10.188001 27.655827 -3.709531 7.615717 113.362102 -67.024236 -132.953889 0.000000 0.000000 0.000000 -1.764317 9.728807 16.760554 19.538936 10.656190 11.621302 13.351247 2.078543 18.329378 0.000000 0.000000 0.000000 -0.374441 -1.061874 -5.563239 -3.648841 3.842137 -11.634353 0.146452 -8.749303 -11.351984 0.000000 0.000000 0.000000 6.540853 -1.694612 6.698393 0.567080 -2.244964 3.380194 3.817494 7.364643 8.684901 0.000000 0.000000 0.000000
0.000000 0.000000 0.000000 0.237660 2.240535 -0.556925 5.789670 0.631381 -4.006997 1.066380 8.092603 -3.080681 -3.096503 7.045831 2.027692 0.000000 0.000000 0.000000 -7.260313 -6.052886 -16.362268 29.503294 -1.076779 7.695650 97.218356 -71.206893 -115.491779 0.000000 0.000000 0.000000 -0.617425 9.502336 17.367076 21.514208 10.946098 13.194311 14.623040 2.647740 19.229768 0.000000 0.000000 0.000000 -0.262510 -1.149146 -5.964167 -5.495713 4.037063 -12.783489 -1.298673 -8.647299 -11.681377 0.000000 0.000000 0.000000 6.930070 -1.805657 7.002021 -0.145363 -2.291302 3.663511 3.743924 7.100895 8.331734 0.000000 0.000000 0.000000
0.000000 0.000000 0.000000 0.227085 1.810753 -0.621212 10.747084 0.551832 -3.001728 3.021868 -1.418568 -7.335990 -2.404234 3.673740 0.560148 0.000000 0.000000 0.000000 -0.557397 -29.187578 -77.566976 -2.368645 -45.113711 20.486144 163.247231 -33.206272 -174.972118 0.000000 0.000000 0.000000 -7.299399 12.171540 16.157827 20.443908 5.898266 15.292710 13.490180 -1.619117 23.985776 0.000000 0.000000 0.000000 6.878764 -1.278994 -3.253662 1.559051 4.173303 -11.321430 -3.837942 -7.358288 -10.845241 0.000000 0.000000 0.000000 7.018087 -2.303501 9.893272 2.600365 -5.934857 8.285412 1.660628 6.523977 7.975991 0.000000 0.000000 0.000000
0.000000 0.000000 0.000000 0.224292 2.032771 -0.545708 9.632747 0.507159 -2.884533 3.343969 3.117958 -8.804268 0.811372 0.041928 0.607081 0.000000 0.000000 0.000000 -25.016731 -20.819524 -38.472988 18.141130 -11.850875 7.368437 -169.102773 -68.765667 172.531342 0.000000 0.000000 0.000000 -5.795246 11.415854 16.185102 19.884394 10.936200 11.763932 13.862560 2.370416 18.606167 0.000000 0.000000 0.000000 2.978189 -0.587169 -1.298014 4.819561 4.489527 -11.415826 -4.843284 -6.246302 -9.809985 0.000000 0.000000 0.000000 7.378949 -3.085535 14.036148 6.642700 -6.456321 7.551915 6.285697 8.725632 10.176138 0.000000 0.000000 0.000000
